<?xml version="1.0" encoding="utf-8"?>
<!-- Generator: Adobe Illustrator 19.0.1, SVG Export Plug-In . SVG Version: 6.00 Build 0)  -->
<svg version="1.1" id="Layer_1" xmlns="http://www.w3.org/2000/svg" xmlns:xlink="http://www.w3.org/1999/xlink" x="0px" y="0px"
	 viewBox="10 -10 48 48" style="enable-background:new 10 -10 48 48;" xml:space="preserve">
<style type="text/css">
	.st0{clip-path:url(#SVGID_2_);fill:#754C29;}
	.st1{clip-path:url(#SVGID_4_);fill:none;stroke:#FFFFFF;stroke-width:1.258;}
</style>
<g>
	<g>
		<defs>
			<rect id="SVGID_1_" x="10.7" y="-9.3" width="46.6" height="46.6"/>
		</defs>
		<clipPath id="SVGID_2_">
			<use xlink:href="#SVGID_1_"  style="overflow:visible;"/>
		</clipPath>
		<path class="st0" d="M34,37.3c12.9,0,23.3-10.4,23.3-23.3S46.9-9.3,34-9.3S10.7,1.1,10.7,14S21.1,37.3,34,37.3"/>
	</g>
	<g>
		<defs>
			<rect id="SVGID_3_" x="10.7" y="-9.3" width="46.6" height="46.6"/>
		</defs>
		<clipPath id="SVGID_4_">
			<use xlink:href="#SVGID_3_"  style="overflow:visible;"/>
		</clipPath>
		<path class="st1" d="M30.9-0.5l3.2,2.2l1.4,16.6l3.8-0.3c0,0-3.7,3-3.5,4.4s0.5,6.6,0.5,6.6l-4-1.8c0,0-0.6-11.7-0.9-14.9
			s-5.5-8-5.5-8L31.1,5L30.9-0.5z"/>
	</g>
</g>
</svg>
