<?xml version="1.0" encoding="utf-8"?>
<!-- Generator: Adobe Illustrator 19.0.1, SVG Export Plug-In . SVG Version: 6.00 Build 0)  -->
<svg version="1.1" id="Layer_1" xmlns="http://www.w3.org/2000/svg" xmlns:xlink="http://www.w3.org/1999/xlink" x="0px" y="0px"
	 viewBox="10 -10 48 48" style="enable-background:new 10 -10 48 48;" xml:space="preserve">
<style type="text/css">
	.st0{clip-path:url(#SVGID_2_);fill:#8CC251;}
	.st1{fill:none;stroke:#FFFFFF;stroke-width:1.258;}
</style>
<g>
	<g>
		<defs>
			<rect id="SVGID_1_" x="10.7" y="-9.3" width="46.6" height="46.6"/>
		</defs>
		<clipPath id="SVGID_2_">
			<use xlink:href="#SVGID_1_"  style="overflow:visible;"/>
		</clipPath>
		<path class="st0" d="M34,37.3c12.9,0,23.3-10.4,23.3-23.3S46.9-9.3,34-9.3S10.7,1.1,10.7,14S21.1,37.3,34,37.3"/>
	</g>
	<g>
		<defs>
			<rect id="SVGID_3_" x="10.7" y="-9.3" width="46.6" height="46.6"/>
		</defs>
		<clipPath id="SVGID_4_">
			<use xlink:href="#SVGID_3_"  style="overflow:visible;"/>
		</clipPath>
	</g>
	<g>
		<defs>
			<rect id="SVGID_5_" x="10.7" y="-9.3" width="46.6" height="46.6"/>
		</defs>
		<clipPath id="SVGID_6_">
			<use xlink:href="#SVGID_5_"  style="overflow:visible;"/>
		</clipPath>
	</g>
</g>
<g>
	<path class="st1" d="M35.5,31.3c0,0,22-7.2,1.8-27.6c0,0-1.1,4-3.1,17C33.1,28,35.5,31.3,35.5,31.3z"/>
	<path class="st1" d="M35.5,31.3c0,0-4.7,0.3-9.7-2.9C18.1,23.2,29.4,0,29.4,0s-0.1,12.8,5.3,17.2"/>
	<path class="st1" d="M27.4,9.4"/>
	<path class="st1" d="M30,6.9c0,0-3-8.4,2.3-10.6l6.2,8.6"/>
</g>
</svg>
