<?xml version="1.0" encoding="utf-8"?>
<!-- Generator: Adobe Illustrator 19.0.1, SVG Export Plug-In . SVG Version: 6.00 Build 0)  -->
<svg version="1.1" id="Layer_1" xmlns="http://www.w3.org/2000/svg" xmlns:xlink="http://www.w3.org/1999/xlink" x="0px" y="0px"
	 viewBox="10 -10 48 48" style="enable-background:new 10 -10 48 48;" xml:space="preserve">
<style type="text/css">
	.st0{fill:#E1484B;}
	.st1{clip-path:url(#SVGID_2_);fill:#E1484B;}
	.st2{clip-path:url(#SVGID_4_);fill:none;stroke:#FFFFFF;stroke-width:0.85;}
	.st3{clip-path:url(#SVGID_6_);fill:#E1484B;}
	.st4{clip-path:url(#SVGID_8_);fill:none;stroke:#FFFFFF;stroke-width:0.85;}
	.st5{clip-path:url(#SVGID_10_);fill:#E1484B;}
	.st6{clip-path:url(#SVGID_12_);fill:none;stroke:#FFFFFF;stroke-width:0.85;}
	.st7{clip-path:url(#SVGID_14_);fill:#E1484B;}
	.st8{clip-path:url(#SVGID_16_);fill:none;stroke:#FFFFFF;stroke-width:0.85;}
	.st9{clip-path:url(#SVGID_18_);fill:#E1484B;}
	.st10{clip-path:url(#SVGID_20_);fill:none;stroke:#FFFFFF;stroke-width:0.85;}
</style>
<g>
	<g>
		<path class="st0" d="M34,37.3c12.9,0,23.3-10.4,23.3-23.3S46.9-9.3,34-9.3S10.7,1.1,10.7,14S21.1,37.3,34,37.3"/>
	</g>
	<g>
		<g>
			<g>
				<defs>
					<rect id="SVGID_1_" x="20.6" y="-2.5" width="26.7" height="33"/>
				</defs>
				<clipPath id="SVGID_2_">
					<use xlink:href="#SVGID_1_"  style="overflow:visible;"/>
				</clipPath>
				<path class="st1" d="M34.8,14.9c0.3-0.5,0.6-0.9,0.9-1.3c0-0.1,0.1-0.1,0.1-0.2l0,0l0,0C35.4,13.9,35,14.4,34.8,14.9 M34,16.2
					C34,16.2,34,16.3,34,16.2c0.2-0.4,0.4-0.9,0.7-1.3C34.5,15.3,34.2,15.8,34,16.2 M32.4,14.5c0.6,0.5,1.1,1.1,1.6,1.7
					C33.5,15.6,33,15,32.4,14.5 M34.6,11.7c-0.1-0.1-0.2-0.3-0.3-0.4C34.4,11.4,34.5,11.6,34.6,11.7 M32,14.1
					c-0.5-0.5-1.1-1-1.6-1.4C30.9,13.1,31.5,13.6,32,14.1 M30.3,12.6c-0.6-0.5-1.2-0.9-1.8-1.3C29.1,11.7,29.7,12.1,30.3,12.6
					 M28,11c-0.5-0.4-1-0.7-1.5-1C27,10.3,27.5,10.6,28,11 M36.2,3.8c-2.9-3.1-5.7-5.3-5.7-5.3c-1.4,1.2-2.3,3.5-3,6
					c1.6,1.2,3.7,3,5.7,5.4l0,0C34,7.3,35.2,5.3,36.2,3.8"/>
			</g>
		</g>
		<g>
			<g>
				<defs>
					<rect id="SVGID_3_" x="20.6" y="-2.5" width="26.7" height="33"/>
				</defs>
				<clipPath id="SVGID_4_">
					<use xlink:href="#SVGID_3_"  style="overflow:visible;"/>
				</clipPath>
				<path class="st2" d="M34.8,14.9c0.3-0.5,0.6-0.9,0.9-1.3c0-0.1,0.1-0.1,0.1-0.2l0,0l0,0C35.4,13.9,35,14.4,34.8,14.9z M34,16.2
					C34,16.2,34,16.3,34,16.2c0.2-0.4,0.4-0.9,0.7-1.3C34.5,15.3,34.2,15.8,34,16.2z M32.4,14.5c0.6,0.5,1.1,1.1,1.6,1.7
					C33.5,15.6,33,15,32.4,14.5z M34.6,11.7c-0.1-0.1-0.2-0.3-0.3-0.4C34.4,11.4,34.5,11.6,34.6,11.7z M32,14.1
					c-0.5-0.5-1.1-1-1.6-1.4C30.9,13.1,31.5,13.6,32,14.1z M30.3,12.6c-0.6-0.5-1.2-0.9-1.8-1.3C29.1,11.7,29.7,12.1,30.3,12.6z
					 M28,11c-0.5-0.4-1-0.7-1.5-1C27,10.3,27.5,10.6,28,11z M36.2,3.8c-2.9-3.1-5.7-5.3-5.7-5.3c-1.4,1.2-2.3,3.5-3,6
					c1.6,1.2,3.7,3,5.7,5.4l0,0C34,7.3,35.2,5.3,36.2,3.8z"/>
			</g>
		</g>
		<g>
			<g>
				<defs>
					<rect id="SVGID_5_" x="20.6" y="-2.5" width="26.7" height="33"/>
				</defs>
				<clipPath id="SVGID_6_">
					<use xlink:href="#SVGID_5_"  style="overflow:visible;"/>
				</clipPath>
				<path class="st3" d="M34,16.2c-0.5-0.6-1-1.2-1.6-1.7C33,15.1,33.5,15.6,34,16.2 M43.4,6.5c-1.2-2.4-3-4.5-5.6-4.8
					c0,0-3.1,3.2-4.7,8.1c0.9,1.1,1.8,2.3,2.5,3.6c-0.1,0.1-0.2,0.3-0.3,0.4C37.8,10.4,41.5,7.7,43.4,6.5 M34.4,15.5
					c0.1-0.3,0.3-0.5,0.4-0.8C34.8,15,34.5,15.2,34.4,15.5"/>
			</g>
		</g>
		<g>
			<g>
				<defs>
					<rect id="SVGID_7_" x="20.6" y="-2.5" width="26.7" height="33"/>
				</defs>
				<clipPath id="SVGID_8_">
					<use xlink:href="#SVGID_7_"  style="overflow:visible;"/>
				</clipPath>
				<path class="st4" d="M34,16.2c-0.5-0.6-1-1.2-1.6-1.7C33,15.1,33.5,15.6,34,16.2z M43.4,6.5c-1.2-2.4-3-4.5-5.6-4.8
					c0,0-3.1,3.2-4.7,8.1c0.9,1.1,1.8,2.3,2.5,3.6c-0.1,0.1-0.2,0.3-0.3,0.4C37.8,10.4,41.5,7.7,43.4,6.5z M34.4,15.5
					c0.1-0.3,0.3-0.5,0.4-0.8C34.8,15,34.5,15.2,34.4,15.5z"/>
			</g>
		</g>
		<g>
			<g>
				<defs>
					<rect id="SVGID_9_" x="20.6" y="-2.5" width="26.7" height="33"/>
				</defs>
				<clipPath id="SVGID_10_">
					<use xlink:href="#SVGID_9_"  style="overflow:visible;"/>
				</clipPath>
				<path class="st5" d="M33.5,17.6C33.5,17.6,33.5,17.7,33.5,17.6C33.5,17.7,33.5,17.6,33.5,17.6 M33.2,19.2L33.2,19.2L33.2,19.2
					L33.2,19.2L33.2,19.2 M33.3,23.8L33.3,23.8L33.3,23.8 M33.2,22.6c0-0.1,0-0.2,0-0.3C33.2,22.4,33.2,22.5,33.2,22.6 M33.1,20.8
					c0,0.1,0,0.3,0,0.4C33.1,21.1,33.1,20.9,33.1,20.8 M35.8,13.4c-4.2-7.1-11-10.7-11-10.7c-0.7,1.8-0.9,3.9-0.7,6
					c2.6,1.3,7,4,10,7.6C34.5,15.2,35.1,14.3,35.8,13.4"/>
			</g>
		</g>
		<g>
			<g>
				<defs>
					<rect id="SVGID_11_" x="20.6" y="-2.5" width="26.7" height="33"/>
				</defs>
				<clipPath id="SVGID_12_">
					<use xlink:href="#SVGID_11_"  style="overflow:visible;"/>
				</clipPath>
				<path class="st6" d="M33.5,17.6C33.5,17.6,33.5,17.7,33.5,17.6C33.5,17.7,33.5,17.6,33.5,17.6z M33.2,19.2L33.2,19.2L33.2,19.2
					L33.2,19.2L33.2,19.2z M33.3,23.8L33.3,23.8L33.3,23.8z M33.2,22.6c0-0.1,0-0.2,0-0.3C33.2,22.4,33.2,22.5,33.2,22.6z
					 M33.1,20.8c0,0.1,0,0.3,0,0.4C33.1,21.1,33.1,20.9,33.1,20.8z M35.8,13.4c-4.2-7.1-11-10.7-11-10.7c-0.7,1.8-0.9,3.9-0.7,6
					c2.6,1.3,7,4,10,7.6C34.5,15.2,35.1,14.3,35.8,13.4z"/>
			</g>
		</g>
		<g>
			<g>
				<defs>
					<rect id="SVGID_13_" x="20.6" y="-2.5" width="26.7" height="33"/>
				</defs>
				<clipPath id="SVGID_14_">
					<use xlink:href="#SVGID_13_"  style="overflow:visible;"/>
				</clipPath>
				<path class="st7" d="M34,16.2c-4.5-5.4-12.1-8.6-12.1-8.6c-3.9,20.6,13.8,22,13.8,22s0-0.1,0.1-0.1c-0.7-0.7-3.2-3.8-2.5-10.3
					C33.3,18.2,33.6,17.2,34,16.2"/>
			</g>
		</g>
		<g>
			<g>
				<defs>
					<rect id="SVGID_15_" x="20.6" y="-2.5" width="26.7" height="33"/>
				</defs>
				<clipPath id="SVGID_16_">
					<use xlink:href="#SVGID_15_"  style="overflow:visible;"/>
				</clipPath>
				<path class="st8" d="M34,16.2c-4.5-5.4-12.1-8.6-12.1-8.6c-3.9,20.6,13.8,22,13.8,22s0-0.1,0.1-0.1c-0.7-0.7-3.2-3.8-2.5-10.3
					C33.3,18.2,33.6,17.2,34,16.2z"/>
			</g>
		</g>
		<g>
			<g>
				<defs>
					<rect id="SVGID_17_" x="20.6" y="-2.5" width="26.7" height="33"/>
				</defs>
				<clipPath id="SVGID_18_">
					<use xlink:href="#SVGID_17_"  style="overflow:visible;"/>
				</clipPath>
				<path class="st9" d="M35.9,29.7c0,0,16-5.1,8.8-24c0,0-10.8,6-11.5,13.6C32.5,26.7,35.9,29.7,35.9,29.7"/>
			</g>
		</g>
		<g>
			<g>
				<defs>
					<rect id="SVGID_19_" x="20.6" y="-2.5" width="26.7" height="33"/>
				</defs>
				<clipPath id="SVGID_20_">
					<use xlink:href="#SVGID_19_"  style="overflow:visible;"/>
				</clipPath>
				<path class="st10" d="M35.9,29.7c0,0,16-5.1,8.8-24c0,0-10.8,6-11.5,13.6C32.5,26.7,35.9,29.7,35.9,29.7z"/>
			</g>
		</g>
	</g>
</g>
</svg>
