<?xml version="1.0" encoding="utf-8"?>
<!-- Generator: Adobe Illustrator 19.0.1, SVG Export Plug-In . SVG Version: 6.00 Build 0)  -->
<svg version="1.1" id="Layer_1" xmlns="http://www.w3.org/2000/svg" xmlns:xlink="http://www.w3.org/1999/xlink" x="0px" y="0px"
	 viewBox="15 -18 40 40" style="enable-background:new 15 -18 40 40;" xml:space="preserve">
<style type="text/css">
	.st0{clip-path:url(#SVGID_2_);fill:none;}
	.st1{clip-path:url(#SVGID_4_);fill:none;stroke:#FFFFFF;stroke-width:0.85;}
	.st2{clip-path:url(#SVGID_6_);fill:none;}
	.st3{clip-path:url(#SVGID_8_);fill:none;stroke:#FFFFFF;stroke-width:0.85;}
	.st4{clip-path:url(#SVGID_10_);fill:none;}
	.st5{clip-path:url(#SVGID_12_);fill:none;stroke:#FFFFFF;stroke-width:0.85;}
	.st6{clip-path:url(#SVGID_14_);fill:none;}
	.st7{clip-path:url(#SVGID_16_);fill:none;stroke:#FFFFFF;stroke-width:0.85;}
	.st8{clip-path:url(#SVGID_18_);fill:none;}
	.st9{clip-path:url(#SVGID_20_);fill:none;stroke:#FFFFFF;stroke-width:0.85;}
</style>
<g>
	<g>
		<g>
			<defs>
				<rect id="SVGID_1_" x="21.6" y="-14.5" width="26.7" height="33"/>
			</defs>
			<clipPath id="SVGID_2_">
				<use xlink:href="#SVGID_1_"  style="overflow:visible;"/>
			</clipPath>
			<path class="st0" d="M35.8,2.9c0.3-0.5,0.6-0.9,0.9-1.3c0-0.1,0.1-0.1,0.1-0.2l0,0l0,0C36.4,1.9,36.1,2.4,35.8,2.9 M35.1,4.2
				C35.1,4.2,35.1,4.3,35.1,4.2c0.2-0.4,0.4-0.9,0.7-1.3C35.6,3.3,35.2,3.8,35.1,4.2 M33.4,2.5C34,3,34.5,3.6,35,4.2
				C34.6,3.6,34.1,3,33.4,2.5 M35.7-0.3c-0.1-0.1-0.2-0.3-0.3-0.4C35.4-0.6,35.6-0.4,35.7-0.3 M33.1,2.1c-0.5-0.5-1.1-1-1.6-1.4
				C32,1.1,32.6,1.6,33.1,2.1 M31.4,0.6c-0.6-0.5-1.2-0.9-1.8-1.3C30.1-0.3,30.8,0.1,31.4,0.6 M29.1-1c-0.5-0.4-1-0.7-1.5-1
				C28.1-1.7,28.6-1.4,29.1-1 M37.2-8.2c-2.9-3.1-5.7-5.3-5.7-5.3c-1.4,1.2-2.3,3.5-3,6c1.6,1.2,3.7,3,5.7,5.4l0,0
				C35.1-4.7,36.2-6.7,37.2-8.2"/>
		</g>
	</g>
	<g>
		<g>
			<defs>
				<rect id="SVGID_3_" x="21.6" y="-14.5" width="26.7" height="33"/>
			</defs>
			<clipPath id="SVGID_4_">
				<use xlink:href="#SVGID_3_"  style="overflow:visible;"/>
			</clipPath>
			<path class="st1" d="M35.8,2.9c0.3-0.5,0.6-0.9,0.9-1.3c0-0.1,0.1-0.1,0.1-0.2l0,0l0,0C36.4,1.9,36.1,2.4,35.8,2.9z M35.1,4.2
				C35.1,4.2,35.1,4.3,35.1,4.2c0.2-0.4,0.4-0.9,0.7-1.3C35.6,3.3,35.2,3.8,35.1,4.2z M33.4,2.5C34,3,34.5,3.6,35,4.2
				C34.6,3.6,34.1,3,33.4,2.5z M35.7-0.3c-0.1-0.1-0.2-0.3-0.3-0.4C35.4-0.6,35.6-0.4,35.7-0.3z M33.1,2.1c-0.5-0.5-1.1-1-1.6-1.4
				C32,1.1,32.6,1.6,33.1,2.1z M31.4,0.6c-0.6-0.5-1.2-0.9-1.8-1.3C30.1-0.3,30.8,0.1,31.4,0.6z M29.1-1c-0.5-0.4-1-0.7-1.5-1
				C28.1-1.7,28.6-1.4,29.1-1z M37.2-8.2c-2.9-3.1-5.7-5.3-5.7-5.3c-1.4,1.2-2.3,3.5-3,6c1.6,1.2,3.7,3,5.7,5.4l0,0
				C35.1-4.7,36.2-6.7,37.2-8.2z"/>
		</g>
	</g>
	<g>
		<g>
			<defs>
				<rect id="SVGID_5_" x="21.6" y="-14.5" width="26.7" height="33"/>
			</defs>
			<clipPath id="SVGID_6_">
				<use xlink:href="#SVGID_5_"  style="overflow:visible;"/>
			</clipPath>
			<path class="st2" d="M35.1,4.2c-0.5-0.6-1-1.2-1.6-1.7C34.1,3.1,34.6,3.6,35.1,4.2 M44.4-5.5c-1.2-2.4-3-4.5-5.6-4.8
				c0,0-3.1,3.2-4.7,8.1c0.9,1.1,1.8,2.3,2.5,3.6c-0.1,0.1-0.2,0.3-0.3,0.4C38.8-1.6,42.6-4.3,44.4-5.5 M35.4,3.5
				c0.1-0.3,0.3-0.5,0.4-0.8C35.8,3,35.6,3.2,35.4,3.5"/>
		</g>
	</g>
	<g>
		<g>
			<defs>
				<rect id="SVGID_7_" x="21.6" y="-14.5" width="26.7" height="33"/>
			</defs>
			<clipPath id="SVGID_8_">
				<use xlink:href="#SVGID_7_"  style="overflow:visible;"/>
			</clipPath>
			<path class="st3" d="M35.1,4.2c-0.5-0.6-1-1.2-1.6-1.7C34.1,3.1,34.6,3.6,35.1,4.2z M44.4-5.5c-1.2-2.4-3-4.5-5.6-4.8
				c0,0-3.1,3.2-4.7,8.1c0.9,1.1,1.8,2.3,2.5,3.6c-0.1,0.1-0.2,0.3-0.3,0.4C38.8-1.6,42.6-4.3,44.4-5.5z M35.4,3.5
				c0.1-0.3,0.3-0.5,0.4-0.8C35.8,3,35.6,3.2,35.4,3.5z"/>
		</g>
	</g>
	<g>
		<g>
			<defs>
				<rect id="SVGID_9_" x="21.6" y="-14.5" width="26.7" height="33"/>
			</defs>
			<clipPath id="SVGID_10_">
				<use xlink:href="#SVGID_9_"  style="overflow:visible;"/>
			</clipPath>
			<path class="st4" d="M34.6,5.6C34.6,5.6,34.6,5.7,34.6,5.6C34.6,5.7,34.6,5.6,34.6,5.6 M34.2,7.2L34.2,7.2L34.2,7.2L34.2,7.2
				L34.2,7.2 M34.3,11.8L34.3,11.8L34.3,11.8 M34.2,10.6c0-0.1,0-0.2,0-0.3C34.2,10.4,34.2,10.5,34.2,10.6 M34.2,8.8
				c0,0.1,0,0.3,0,0.4C34.2,9.1,34.2,8.9,34.2,8.8 M36.8,1.4c-4.2-7.1-11-10.7-11-10.7c-0.7,1.8-0.9,3.9-0.7,6c2.6,1.3,7,4,10,7.6
				C35.6,3.2,36.2,2.3,36.8,1.4"/>
		</g>
	</g>
	<g>
		<g>
			<defs>
				<rect id="SVGID_11_" x="21.6" y="-14.5" width="26.7" height="33"/>
			</defs>
			<clipPath id="SVGID_12_">
				<use xlink:href="#SVGID_11_"  style="overflow:visible;"/>
			</clipPath>
			<path class="st5" d="M34.6,5.6C34.6,5.6,34.6,5.7,34.6,5.6C34.6,5.7,34.6,5.6,34.6,5.6z M34.2,7.2L34.2,7.2L34.2,7.2L34.2,7.2
				L34.2,7.2z M34.3,11.8L34.3,11.8L34.3,11.8z M34.2,10.6c0-0.1,0-0.2,0-0.3C34.2,10.4,34.2,10.5,34.2,10.6z M34.2,8.8
				c0,0.1,0,0.3,0,0.4C34.2,9.1,34.2,8.9,34.2,8.8z M36.8,1.4c-4.2-7.1-11-10.7-11-10.7c-0.7,1.8-0.9,3.9-0.7,6c2.6,1.3,7,4,10,7.6
				C35.6,3.2,36.2,2.3,36.8,1.4z"/>
		</g>
	</g>
	<g>
		<g>
			<defs>
				<rect id="SVGID_13_" x="21.6" y="-14.5" width="26.7" height="33"/>
			</defs>
			<clipPath id="SVGID_14_">
				<use xlink:href="#SVGID_13_"  style="overflow:visible;"/>
			</clipPath>
			<path class="st6" d="M35.1,4.2C30.6-1.2,23-4.4,23-4.4c-3.9,20.6,13.8,22,13.8,22s0-0.1,0.1-0.1c-0.7-0.7-3.2-3.8-2.5-10.3
				C34.3,6.2,34.7,5.2,35.1,4.2"/>
		</g>
	</g>
	<g>
		<g>
			<defs>
				<rect id="SVGID_15_" x="21.6" y="-14.5" width="26.7" height="33"/>
			</defs>
			<clipPath id="SVGID_16_">
				<use xlink:href="#SVGID_15_"  style="overflow:visible;"/>
			</clipPath>
			<path class="st7" d="M35.1,4.2C30.6-1.2,23-4.4,23-4.4c-3.9,20.6,13.8,22,13.8,22s0-0.1,0.1-0.1c-0.7-0.7-3.2-3.8-2.5-10.3
				C34.3,6.2,34.7,5.2,35.1,4.2z"/>
		</g>
	</g>
	<g>
		<g>
			<defs>
				<rect id="SVGID_17_" x="21.6" y="-14.5" width="26.7" height="33"/>
			</defs>
			<clipPath id="SVGID_18_">
				<use xlink:href="#SVGID_17_"  style="overflow:visible;"/>
			</clipPath>
			<path class="st8" d="M36.9,17.7c0,0,16-5.1,8.8-24c0,0-10.8,6-11.5,13.6C33.6,14.7,36.9,17.7,36.9,17.7"/>
		</g>
	</g>
	<g>
		<g>
			<defs>
				<rect id="SVGID_19_" x="21.6" y="-14.5" width="26.7" height="33"/>
			</defs>
			<clipPath id="SVGID_20_">
				<use xlink:href="#SVGID_19_"  style="overflow:visible;"/>
			</clipPath>
			<path class="st9" d="M36.9,17.7c0,0,16-5.1,8.8-24c0,0-10.8,6-11.5,13.6C33.6,14.7,36.9,17.7,36.9,17.7z"/>
		</g>
	</g>
</g>
</svg>
