<?xml version="1.0" encoding="utf-8"?>
<!-- Generator: Adobe Illustrator 19.0.1, SVG Export Plug-In . SVG Version: 6.00 Build 0)  -->
<svg version="1.1" id="Layer_1" xmlns="http://www.w3.org/2000/svg" xmlns:xlink="http://www.w3.org/1999/xlink" x="0px" y="0px"
	 viewBox="-273 396.9 48 48" style="enable-background:new -273 396.9 48 48;" xml:space="preserve">
<style type="text/css">
	.st0{fill:#FFFFFF;}
	.st1{clip-path:url(#SVGID_2_);fill:#E1484B;}
	.st2{clip-path:url(#SVGID_4_);fill:none;stroke:#FFFFFF;stroke-width:0.85;}
	.st3{clip-path:url(#SVGID_6_);fill:#E1484B;}
	.st4{clip-path:url(#SVGID_8_);fill:none;stroke:#FFFFFF;stroke-width:0.85;}
	.st5{clip-path:url(#SVGID_10_);fill:#E1484B;}
	.st6{clip-path:url(#SVGID_12_);fill:none;stroke:#FFFFFF;stroke-width:0.85;}
	.st7{clip-path:url(#SVGID_14_);fill:#E1484B;}
	.st8{clip-path:url(#SVGID_16_);fill:none;stroke:#FFFFFF;stroke-width:0.85;}
	.st9{clip-path:url(#SVGID_18_);fill:#E1484B;}
	.st10{clip-path:url(#SVGID_20_);fill:none;stroke:#FFFFFF;stroke-width:0.85;}
</style>
<g>
	<g>
		<path class="st0" d="M-249,444.2c12.9,0,23.3-10.4,23.3-23.3s-10.4-23.3-23.3-23.3c-12.9,0-23.3,10.4-23.3,23.3
			S-261.9,444.2-249,444.2"/>
	</g>
	<g>
		<g>
			<g>
				<g>
					<defs>
						<rect id="SVGID_1_" x="-262.4" y="404.4" width="26.7" height="33"/>
					</defs>
					<clipPath id="SVGID_2_">
						<use xlink:href="#SVGID_1_"  style="overflow:visible;"/>
					</clipPath>
					<path class="st1" d="M-248.2,421.8c0.3-0.5,0.6-0.9,0.9-1.3c0-0.1,0.1-0.1,0.1-0.2l0,0l0,0C-247.6,420.8-248,421.3-248.2,421.8
						 M-249,423.1C-249,423.1-249,423.2-249,423.1c0.2-0.4,0.4-0.9,0.7-1.3C-248.5,422.2-248.8,422.7-249,423.1 M-250.6,421.4
						c0.6,0.5,1.1,1.1,1.6,1.7C-249.5,422.5-250,421.9-250.6,421.4 M-248.4,418.6c-0.1-0.1-0.2-0.3-0.3-0.4
						C-248.6,418.3-248.5,418.5-248.4,418.6 M-251,421c-0.5-0.5-1.1-1-1.6-1.4C-252.1,420-251.5,420.5-251,421 M-252.7,419.5
						c-0.6-0.5-1.2-0.9-1.8-1.3C-253.9,418.6-253.3,419-252.7,419.5 M-255,417.9c-0.5-0.4-1-0.7-1.5-1
						C-256,417.2-255.5,417.5-255,417.9 M-246.8,410.7c-2.9-3.1-5.7-5.3-5.7-5.3c-1.4,1.2-2.3,3.5-3,6c1.6,1.2,3.7,3,5.7,5.4l0,0
						C-249,414.2-247.8,412.2-246.8,410.7"/>
				</g>
			</g>
		</g>
		<g>
			<g>
				<g>
					<defs>
						<rect id="SVGID_3_" x="-262.4" y="404.4" width="26.7" height="33"/>
					</defs>
					<clipPath id="SVGID_4_">
						<use xlink:href="#SVGID_3_"  style="overflow:visible;"/>
					</clipPath>
					<path class="st2" d="M-248.2,421.8c0.3-0.5,0.6-0.9,0.9-1.3c0-0.1,0.1-0.1,0.1-0.2l0,0l0,0C-247.6,420.8-248,421.3-248.2,421.8
						z M-249,423.1C-249,423.1-249,423.2-249,423.1c0.2-0.4,0.4-0.9,0.7-1.3C-248.5,422.2-248.8,422.7-249,423.1z M-250.6,421.4
						c0.6,0.5,1.1,1.1,1.6,1.7C-249.5,422.5-250,421.9-250.6,421.4z M-248.4,418.6c-0.1-0.1-0.2-0.3-0.3-0.4
						C-248.6,418.3-248.5,418.5-248.4,418.6z M-251,421c-0.5-0.5-1.1-1-1.6-1.4C-252.1,420-251.5,420.5-251,421z M-252.7,419.5
						c-0.6-0.5-1.2-0.9-1.8-1.3C-253.9,418.6-253.3,419-252.7,419.5z M-255,417.9c-0.5-0.4-1-0.7-1.5-1
						C-256,417.2-255.5,417.5-255,417.9z M-246.8,410.7c-2.9-3.1-5.7-5.3-5.7-5.3c-1.4,1.2-2.3,3.5-3,6c1.6,1.2,3.7,3,5.7,5.4l0,0
						C-249,414.2-247.8,412.2-246.8,410.7z"/>
				</g>
			</g>
		</g>
		<g>
			<g>
				<g>
					<defs>
						<rect id="SVGID_5_" x="-262.4" y="404.4" width="26.7" height="33"/>
					</defs>
					<clipPath id="SVGID_6_">
						<use xlink:href="#SVGID_5_"  style="overflow:visible;"/>
					</clipPath>
					<path class="st3" d="M-249,423.1c-0.5-0.6-1-1.2-1.6-1.7C-250,422-249.5,422.5-249,423.1 M-239.6,413.4c-1.2-2.4-3-4.5-5.6-4.8
						c0,0-3.1,3.2-4.7,8.1c0.9,1.1,1.8,2.3,2.5,3.6c-0.1,0.1-0.2,0.3-0.3,0.4C-245.2,417.3-241.5,414.6-239.6,413.4 M-248.6,422.4
						c0.1-0.3,0.3-0.5,0.4-0.8C-248.2,421.9-248.5,422.1-248.6,422.4"/>
				</g>
			</g>
		</g>
		<g>
			<g>
				<g>
					<defs>
						<rect id="SVGID_7_" x="-262.4" y="404.4" width="26.7" height="33"/>
					</defs>
					<clipPath id="SVGID_8_">
						<use xlink:href="#SVGID_7_"  style="overflow:visible;"/>
					</clipPath>
					<path class="st4" d="M-249,423.1c-0.5-0.6-1-1.2-1.6-1.7C-250,422-249.5,422.5-249,423.1z M-239.6,413.4
						c-1.2-2.4-3-4.5-5.6-4.8c0,0-3.1,3.2-4.7,8.1c0.9,1.1,1.8,2.3,2.5,3.6c-0.1,0.1-0.2,0.3-0.3,0.4
						C-245.2,417.3-241.5,414.6-239.6,413.4z M-248.6,422.4c0.1-0.3,0.3-0.5,0.4-0.8C-248.2,421.9-248.5,422.1-248.6,422.4z"/>
				</g>
			</g>
		</g>
		<g>
			<g>
				<g>
					<defs>
						<rect id="SVGID_9_" x="-262.4" y="404.4" width="26.7" height="33"/>
					</defs>
					<clipPath id="SVGID_10_">
						<use xlink:href="#SVGID_9_"  style="overflow:visible;"/>
					</clipPath>
					<path class="st5" d="M-249.5,424.5C-249.5,424.5-249.5,424.6-249.5,424.5C-249.5,424.6-249.5,424.5-249.5,424.5 M-249.8,426.1
						L-249.8,426.1L-249.8,426.1L-249.8,426.1L-249.8,426.1 M-249.7,430.7L-249.7,430.7L-249.7,430.7 M-249.8,429.5
						c0-0.1,0-0.2,0-0.3C-249.8,429.3-249.8,429.4-249.8,429.5 M-249.9,427.7c0,0.1,0,0.3,0,0.4C-249.9,428-249.9,427.8-249.9,427.7
						 M-247.2,420.3c-4.2-7.1-11-10.7-11-10.7c-0.7,1.8-0.9,3.9-0.7,6c2.6,1.3,7,4,10,7.6C-248.5,422.1-247.9,421.2-247.2,420.3"/>
				</g>
			</g>
		</g>
		<g>
			<g>
				<g>
					<defs>
						<rect id="SVGID_11_" x="-262.4" y="404.4" width="26.7" height="33"/>
					</defs>
					<clipPath id="SVGID_12_">
						<use xlink:href="#SVGID_11_"  style="overflow:visible;"/>
					</clipPath>
					<path class="st6" d="M-249.5,424.5C-249.5,424.5-249.5,424.6-249.5,424.5C-249.5,424.6-249.5,424.5-249.5,424.5z M-249.8,426.1
						L-249.8,426.1L-249.8,426.1L-249.8,426.1L-249.8,426.1z M-249.7,430.7L-249.7,430.7L-249.7,430.7z M-249.8,429.5
						c0-0.1,0-0.2,0-0.3C-249.8,429.3-249.8,429.4-249.8,429.5z M-249.9,427.7c0,0.1,0,0.3,0,0.4
						C-249.9,428-249.9,427.8-249.9,427.7z M-247.2,420.3c-4.2-7.1-11-10.7-11-10.7c-0.7,1.8-0.9,3.9-0.7,6c2.6,1.3,7,4,10,7.6
						C-248.5,422.1-247.9,421.2-247.2,420.3z"/>
				</g>
			</g>
		</g>
		<g>
			<g>
				<g>
					<defs>
						<rect id="SVGID_13_" x="-262.4" y="404.4" width="26.7" height="33"/>
					</defs>
					<clipPath id="SVGID_14_">
						<use xlink:href="#SVGID_13_"  style="overflow:visible;"/>
					</clipPath>
					<path class="st7" d="M-249,423.1c-4.5-5.4-12.1-8.6-12.1-8.6c-3.9,20.6,13.8,22,13.8,22s0-0.1,0.1-0.1
						c-0.7-0.7-3.2-3.8-2.5-10.3C-249.7,425.1-249.4,424.1-249,423.1"/>
				</g>
			</g>
		</g>
		<g>
			<g>
				<g>
					<defs>
						<rect id="SVGID_15_" x="-262.4" y="404.4" width="26.7" height="33"/>
					</defs>
					<clipPath id="SVGID_16_">
						<use xlink:href="#SVGID_15_"  style="overflow:visible;"/>
					</clipPath>
					<path class="st8" d="M-249,423.1c-4.5-5.4-12.1-8.6-12.1-8.6c-3.9,20.6,13.8,22,13.8,22s0-0.1,0.1-0.1
						c-0.7-0.7-3.2-3.8-2.5-10.3C-249.7,425.1-249.4,424.1-249,423.1z"/>
				</g>
			</g>
		</g>
		<g>
			<g>
				<g>
					<defs>
						<rect id="SVGID_17_" x="-262.4" y="404.4" width="26.7" height="33"/>
					</defs>
					<clipPath id="SVGID_18_">
						<use xlink:href="#SVGID_17_"  style="overflow:visible;"/>
					</clipPath>
					<path class="st9" d="M-247.1,436.6c0,0,16-5.1,8.8-24c0,0-10.8,6-11.5,13.6C-250.5,433.6-247.1,436.6-247.1,436.6"/>
				</g>
			</g>
		</g>
		<g>
			<g>
				<g>
					<defs>
						<rect id="SVGID_19_" x="-262.4" y="404.4" width="26.7" height="33"/>
					</defs>
					<clipPath id="SVGID_20_">
						<use xlink:href="#SVGID_19_"  style="overflow:visible;"/>
					</clipPath>
					<path class="st10" d="M-247.1,436.6c0,0,16-5.1,8.8-24c0,0-10.8,6-11.5,13.6C-250.5,433.6-247.1,436.6-247.1,436.6z"/>
				</g>
			</g>
		</g>
	</g>
</g>
</svg>
