<?xml version="1.0" encoding="utf-8"?>
<!-- Generator: Adobe Illustrator 19.0.1, SVG Export Plug-In . SVG Version: 6.00 Build 0)  -->
<svg version="1.1" id="Layer_1" xmlns="http://www.w3.org/2000/svg" xmlns:xlink="http://www.w3.org/1999/xlink" x="0px" y="0px"
	 viewBox="0 0 40 40" style="enable-background:new 0 0 40 40;" xml:space="preserve">
<style type="text/css">
	.st0{clip-path:url(#SVGID_2_);fill:#E1484B;}
	.st1{clip-path:url(#SVGID_2_);fill:none;stroke:#FFFFFF;stroke-width:0.85;}
</style>
<g>
	<defs>
		<rect id="SVGID_1_" x="6.3" y="4" width="26.7" height="33"/>
	</defs>
	<clipPath id="SVGID_2_">
		<use xlink:href="#SVGID_1_"  style="overflow:visible;"/>
	</clipPath>
	<path class="st0" d="M20.4,21.4c0.3-0.5,0.6-0.9,0.9-1.3c0-0.1,0.1-0.1,0.1-0.2c0,0,0,0,0,0c0,0,0,0,0,0
		C21.1,20.4,20.7,20.9,20.4,21.4 M19.7,22.7C19.7,22.7,19.7,22.8,19.7,22.7c0.2-0.4,0.4-0.9,0.7-1.3C20.2,21.8,19.9,22.3,19.7,22.7
		 M18.1,21c0.6,0.5,1.1,1.1,1.6,1.7C19.2,22.1,18.7,21.5,18.1,21 M20.3,18.2c-0.1-0.1-0.2-0.3-0.3-0.4
		C20.1,17.9,20.2,18.1,20.3,18.2 M17.7,20.6c-0.5-0.5-1.1-1-1.6-1.4C16.6,19.6,17.2,20.1,17.7,20.6 M16,19.1
		c-0.6-0.5-1.2-0.9-1.8-1.3C14.8,18.2,15.4,18.6,16,19.1 M13.7,17.5c-0.5-0.4-1-0.7-1.5-1C12.7,16.8,13.2,17.1,13.7,17.5 M21.9,10.3
		C19,7.2,16.2,5,16.2,5c-1.4,1.2-2.3,3.5-3,6c1.6,1.2,3.7,3,5.7,5.4c0,0,0,0,0,0C19.7,13.8,20.9,11.8,21.9,10.3"/>
	<path class="st1" d="M20.4,21.4c0.3-0.5,0.6-0.9,0.9-1.3c0-0.1,0.1-0.1,0.1-0.2c0,0,0,0,0,0c0,0,0,0,0,0
		C21.1,20.4,20.7,20.9,20.4,21.4z M19.7,22.7C19.7,22.7,19.7,22.8,19.7,22.7c0.2-0.4,0.4-0.9,0.7-1.3C20.2,21.8,19.9,22.3,19.7,22.7
		z M18.1,21c0.6,0.5,1.1,1.1,1.6,1.7C19.2,22.1,18.7,21.5,18.1,21z M20.3,18.2c-0.1-0.1-0.2-0.3-0.3-0.4
		C20.1,17.9,20.2,18.1,20.3,18.2z M17.7,20.6c-0.5-0.5-1.1-1-1.6-1.4C16.6,19.6,17.2,20.1,17.7,20.6z M16,19.1
		c-0.6-0.5-1.2-0.9-1.8-1.3C14.8,18.2,15.4,18.6,16,19.1z M13.7,17.5c-0.5-0.4-1-0.7-1.5-1C12.7,16.8,13.2,17.1,13.7,17.5z
		 M21.9,10.3C19,7.2,16.2,5,16.2,5c-1.4,1.2-2.3,3.5-3,6c1.6,1.2,3.7,3,5.7,5.4c0,0,0,0,0,0C19.7,13.8,20.9,11.8,21.9,10.3z"/>
	<path class="st0" d="M19.7,22.7c-0.5-0.6-1-1.2-1.6-1.7C18.7,21.6,19.2,22.1,19.7,22.7 M29.1,13c-1.2-2.4-3-4.5-5.6-4.8
		c0,0-3.1,3.2-4.7,8.1c0.9,1.1,1.8,2.3,2.5,3.6c-0.1,0.1-0.2,0.3-0.3,0.4C23.5,16.9,27.2,14.2,29.1,13 M20.1,22
		c0.1-0.3,0.3-0.5,0.4-0.8C20.4,21.5,20.2,21.7,20.1,22"/>
	<path class="st1" d="M19.7,22.7c-0.5-0.6-1-1.2-1.6-1.7C18.7,21.6,19.2,22.1,19.7,22.7z M29.1,13c-1.2-2.4-3-4.5-5.6-4.8
		c0,0-3.1,3.2-4.7,8.1c0.9,1.1,1.8,2.3,2.5,3.6c-0.1,0.1-0.2,0.3-0.3,0.4C23.5,16.9,27.2,14.2,29.1,13z M20.1,22
		c0.1-0.3,0.3-0.5,0.4-0.8C20.4,21.5,20.2,21.7,20.1,22z"/>
	<path class="st0" d="M19.2,24.1C19.2,24.1,19.2,24.2,19.2,24.1C19.2,24.2,19.2,24.1,19.2,24.1 M18.9,25.7L18.9,25.7
		C18.9,25.7,18.9,25.7,18.9,25.7C18.9,25.7,18.9,25.7,18.9,25.7L18.9,25.7 M19,30.3C19,30.3,19,30.3,19,30.3
		C19,30.3,19,30.3,19,30.3 M18.9,29.1c0-0.1,0-0.2,0-0.3C18.9,28.9,18.9,29,18.9,29.1 M18.8,27.3c0,0.1,0,0.3,0,0.4
		C18.8,27.6,18.8,27.4,18.8,27.3 M21.4,19.9c-4.2-7.1-11-10.7-11-10.7c-0.7,1.8-0.9,3.9-0.7,6c2.6,1.3,7,4,10,7.6
		C20.2,21.7,20.8,20.8,21.4,19.9"/>
	<path class="st1" d="M19.2,24.1C19.2,24.1,19.2,24.2,19.2,24.1C19.2,24.2,19.2,24.1,19.2,24.1z M18.9,25.7L18.9,25.7
		C18.9,25.7,18.9,25.7,18.9,25.7C18.9,25.7,18.9,25.7,18.9,25.7L18.9,25.7z M19,30.3C19,30.3,19,30.3,19,30.3
		C19,30.3,19,30.3,19,30.3z M18.9,29.1c0-0.1,0-0.2,0-0.3C18.9,28.9,18.9,29,18.9,29.1z M18.8,27.3c0,0.1,0,0.3,0,0.4
		C18.8,27.6,18.8,27.4,18.8,27.3z M21.4,19.9c-4.2-7.1-11-10.7-11-10.7c-0.7,1.8-0.9,3.9-0.7,6c2.6,1.3,7,4,10,7.6
		C20.2,21.7,20.8,20.8,21.4,19.9z"/>
	<path class="st0" d="M19.7,22.7c-4.5-5.4-12.1-8.6-12.1-8.6c-3.9,20.6,13.8,22,13.8,22c0,0,0-0.1,0.1-0.1
		c-0.7-0.7-3.2-3.8-2.5-10.3C19,24.7,19.3,23.7,19.7,22.7"/>
	<path class="st1" d="M19.7,22.7c-4.5-5.4-12.1-8.6-12.1-8.6c-3.9,20.6,13.8,22,13.8,22c0,0,0-0.1,0.1-0.1
		c-0.7-0.7-3.2-3.8-2.5-10.3C19,24.7,19.3,23.7,19.7,22.7z"/>
	<path class="st0" d="M21.6,36.2c0,0,16-5.1,8.8-24c0,0-10.8,6-11.5,13.6C18.2,33.2,21.6,36.2,21.6,36.2"/>
	<path class="st1" d="M21.6,36.2c0,0,16-5.1,8.8-24c0,0-10.8,6-11.5,13.6C18.2,33.2,21.6,36.2,21.6,36.2z"/>
</g>
</svg>
